<?xml version="1.0" encoding="UTF-8" standalone="no"?>
<!DOCTYPE svg PUBLIC "-//W3C//DTD SVG 20010904//EN"
              "http://www.w3.org/TR/2001/REC-SVG-20010904/DTD/svg10.dtd">

<svg xmlns="http://www.w3.org/2000/svg"
     width="20" height="20"
     viewBox="0 0 485 485">
  <path id="Selection"
        fill="none" stroke="black" stroke-width="1"
        d="M 135.00,26.00
           C 137.75,21.72 145.29,19.51 150.00,17.60
             163.49,12.16 177.74,7.70 192.00,4.80
             192.00,4.80 203.00,2.32 203.00,2.32
             203.00,2.32 228.00,0.00 228.00,0.00
             245.85,-0.21 264.35,-0.57 282.00,2.32
             302.55,5.69 328.19,13.89 347.00,22.78
             357.34,27.66 368.49,34.00 378.00,40.33
             382.70,43.47 387.35,45.86 390.00,51.00
             397.38,52.05 409.53,65.53 415.00,71.00
             436.74,92.74 454.28,118.56 466.01,147.00
             472.04,161.61 477.13,176.48 480.34,192.00
             498.04,277.77 468.20,367.69 402.00,425.28
             384.60,440.42 367.41,451.25 347.00,461.78
             340.62,465.07 326.95,471.60 320.00,471.00
             317.29,474.54 312.15,475.27 308.00,476.37
             297.57,479.16 286.75,481.84 276.00,483.05
             228.76,488.35 191.26,483.96 147.00,466.20
             137.11,462.23 121.91,454.44 113.00,448.66
             109.32,446.26 103.07,443.38 102.00,439.00
             93.98,437.32 82.55,426.08 76.72,420.16
             59.16,402.38 50.96,394.97 37.34,373.00
             18.01,341.82 6.46,311.46 1.72,275.00
             1.72,275.00 0.00,256.00 0.00,256.00
             0.00,256.00 0.00,227.00 0.00,227.00
             0.00,227.00 1.85,209.00 1.85,209.00
             6.73,168.18 23.89,128.94 48.15,96.00
             64.26,74.13 85.41,54.65 108.00,39.67
             114.16,35.58 127.98,26.01 135.00,26.00 Z
           M 293.00,23.00
           C 293.00,23.00 270.00,17.88 270.00,17.88
             270.00,17.88 232.00,12.00 232.00,12.00
             235.47,24.15 243.43,28.73 241.00,43.00
             228.15,38.19 206.20,34.65 193.00,39.00
             198.31,50.89 204.11,52.84 211.33,62.00
             213.63,64.93 217.33,69.87 216.40,73.83
             215.74,76.59 211.74,79.96 209.80,82.17
             205.88,86.65 204.37,89.56 202.20,95.00
             202.20,95.00 190.56,142.00 190.56,142.00
             189.36,145.32 187.84,149.04 185.90,151.99
             182.89,156.55 178.34,158.97 181.43,165.00
             182.69,167.46 189.11,175.61 191.13,178.00
             204.65,193.91 208.42,194.77 227.00,202.20
             237.84,206.53 246.04,209.79 258.00,208.91
             270.02,208.03 279.14,199.52 292.00,200.04
             298.62,200.31 312.41,205.24 310.44,214.00
             308.74,221.50 294.65,229.07 288.00,232.10
             266.23,242.02 233.89,246.28 210.00,249.73
             200.68,251.08 182.10,253.80 177.57,263.02
             176.37,265.46 176.02,268.30 176.03,271.00
             176.08,284.08 189.85,288.82 201.00,288.41
             216.21,287.85 226.35,278.12 243.00,280.29
             248.04,280.95 250.00,281.87 254.58,283.49
             270.31,289.05 278.02,294.33 288.87,307.00
             290.95,309.43 298.37,318.31 298.90,321.00
             299.44,323.79 297.17,325.91 295.70,328.00
             292.99,331.86 292.44,333.71 290.81,338.00
             290.81,338.00 279.55,384.00 279.55,384.00
             277.53,389.10 275.20,393.75 271.68,398.00
             268.96,401.27 264.45,404.64 263.85,409.00
             261.99,422.73 280.39,431.70 286.00,444.00
             286.00,444.00 273.00,444.82 273.00,444.82
             261.78,444.02 250.66,441.55 240.00,438.00
             237.10,448.20 240.53,457.36 246.00,466.00
             246.00,466.00 220.00,462.80 220.00,462.80
             215.25,461.89 211.87,462.10 208.00,459.00
             200.80,459.28 188.11,454.28 181.00,451.83
             163.63,445.86 142.07,434.58 126.83,424.32
             120.29,419.92 109.96,412.93 105.00,407.00
             99.12,405.34 88.03,393.10 83.66,388.28
             70.85,374.13 57.75,355.59 52.59,337.00
             50.93,331.02 50.44,325.10 49.72,319.00
             47.84,303.18 52.43,281.90 70.00,276.94
             81.37,273.73 96.67,283.06 91.60,295.98
             88.55,303.76 81.60,301.63 75.30,309.09
             69.61,315.83 71.01,325.52 79.00,329.69
             81.98,331.24 85.72,331.07 89.00,330.99
             94.87,330.84 99.87,328.96 105.00,326.21
             124.26,315.87 128.78,295.47 121.45,276.00
             114.06,256.42 93.62,244.24 73.00,245.04
             38.57,246.38 18.94,272.30 17.09,305.00
             16.88,308.83 17.48,310.47 17.83,314.00
             19.67,332.38 21.89,335.76 30.14,352.00
             46.32,383.85 70.74,410.77 99.00,432.35
             166.11,483.58 261.15,493.26 338.04,459.32
             379.59,440.98 412.76,412.22 438.50,375.00
             451.68,355.95 462.54,333.29 468.86,311.00
             474.34,291.64 478.97,269.15 479.00,249.00
             479.02,235.03 478.60,207.60 474.00,195.00
             474.00,195.00 466.94,216.00 466.94,216.00
             463.48,224.84 456.50,233.69 449.00,239.47
             437.97,247.99 426.50,250.15 413.00,250.00
             387.82,249.70 367.98,228.63 366.18,204.00
             364.98,187.44 379.39,170.95 395.00,167.17
             402.28,165.41 412.39,164.78 416.91,172.09
             425.64,186.18 401.93,193.12 399.36,195.41
             397.07,197.45 396.31,201.06 396.10,204.00
             394.99,219.64 410.44,224.30 423.00,220.48
             431.74,217.83 436.51,211.20 439.56,203.00
             445.27,187.64 444.51,165.35 438.95,150.00
             438.95,150.00 432.24,134.00 432.24,134.00
             430.45,130.43 428.26,127.97 428.00,124.00
             428.00,124.00 410.87,102.01 410.87,102.01
             397.49,86.68 384.66,74.22 368.00,62.42
             349.05,49.00 337.62,43.19 317.00,33.26
             310.70,30.22 297.50,26.66 293.00,23.00 Z
           M 296.00,23.00
           C 296.00,23.00 295.00,23.00 295.00,23.00
             295.00,23.00 296.00,24.00 296.00,24.00
             296.00,24.00 296.00,23.00 296.00,23.00 Z
           M 324.00,32.00
           C 324.00,32.00 323.00,32.00 323.00,32.00
             323.00,32.00 324.00,33.00 324.00,33.00
             324.00,33.00 324.00,32.00 324.00,32.00 Z
           M 339.00,39.00
           C 339.00,39.00 338.00,39.00 338.00,39.00
             338.00,39.00 339.00,40.00 339.00,40.00
             339.00,40.00 339.00,39.00 339.00,39.00 Z
           M 336.00,40.00
           C 336.00,40.00 335.00,40.00 335.00,40.00
             335.00,40.00 336.00,41.00 336.00,41.00
             336.00,41.00 336.00,40.00 336.00,40.00 Z
           M 93.00,52.00
           C 93.00,52.00 92.00,52.00 92.00,52.00
             92.00,52.00 93.00,53.00 93.00,53.00
             93.00,53.00 93.00,52.00 93.00,52.00 Z
           M 209.00,81.00
           C 209.00,81.00 208.00,81.00 208.00,81.00
             208.00,81.00 209.00,82.00 209.00,82.00
             209.00,82.00 209.00,81.00 209.00,81.00 Z
           M 403.00,90.00
           C 403.00,90.00 402.00,90.00 402.00,90.00
             402.00,90.00 403.00,91.00 403.00,91.00
             403.00,91.00 403.00,90.00 403.00,90.00 Z
           M 411.00,99.00
           C 411.00,99.00 410.00,99.00 410.00,99.00
             410.00,99.00 411.00,100.00 411.00,100.00
             411.00,100.00 411.00,99.00 411.00,99.00 Z
           M 414.00,99.00
           C 414.00,99.00 413.00,99.00 413.00,99.00
             413.00,99.00 414.00,100.00 414.00,100.00
             414.00,100.00 414.00,99.00 414.00,99.00 Z
           M 261.00,136.00
           C 263.45,131.28 266.70,129.85 271.00,126.88
             280.17,120.56 288.45,116.02 299.00,112.34
             303.56,110.76 309.25,108.42 314.00,110.00
             298.69,113.49 278.26,125.71 266.00,135.45
             259.66,140.48 244.68,154.02 238.00,156.00
             241.35,149.32 253.58,137.06 261.00,136.00 Z
           M 296.00,115.00
           C 296.00,115.00 295.00,115.00 295.00,115.00
             295.00,115.00 296.00,116.00 296.00,116.00
             296.00,116.00 296.00,115.00 296.00,115.00 Z
           M 430.00,118.00
           C 430.00,118.00 429.00,118.00 429.00,118.00
             429.00,118.00 430.00,119.00 430.00,119.00
             430.00,119.00 430.00,118.00 430.00,118.00 Z
           M 245.00,121.00
           C 245.00,121.00 234.00,127.45 234.00,127.45
             234.00,127.45 225.00,133.77 225.00,133.77
             219.63,137.30 215.61,134.60 216.71,129.99
             219.14,119.73 236.76,116.21 245.00,121.00 Z
           M 220.00,134.00
           C 220.00,134.00 219.00,134.00 219.00,134.00
             219.00,134.00 220.00,135.00 220.00,135.00
             220.00,135.00 220.00,134.00 220.00,134.00 Z
           M 305.00,134.00
           C 305.00,134.00 311.00,136.00 311.00,136.00
             312.04,133.19 316.56,134.33 319.00,135.00
             319.00,135.00 299.00,138.00 299.00,138.00
             299.00,138.00 301.00,138.00 301.00,138.00
             301.00,138.00 301.00,139.00 301.00,139.00
             301.00,139.00 296.00,140.00 296.00,140.00
             296.00,140.00 293.00,138.00 293.00,138.00
             293.00,138.00 293.00,141.00 293.00,141.00
             293.00,141.00 286.00,143.00 286.00,143.00
             286.00,143.00 291.00,139.00 291.00,139.00
             291.00,139.00 283.00,141.00 283.00,141.00
             283.00,141.00 284.00,144.00 284.00,144.00
             284.00,144.00 273.00,146.00 273.00,146.00
             273.00,146.00 274.00,148.00 274.00,148.00
             274.00,148.00 271.00,147.00 271.00,147.00
             270.05,151.25 262.73,152.51 259.00,152.00
             257.92,154.85 256.10,152.60 255.00,151.00
             255.00,151.00 258.00,152.00 258.00,152.00
             258.00,152.00 257.00,150.00 257.00,150.00
             257.00,150.00 261.00,149.00 261.00,149.00
             262.23,151.40 262.55,150.76 265.00,150.00
             260.17,147.98 266.90,145.73 269.00,145.18
             269.00,145.18 276.98,144.05 276.98,144.05
             280.68,142.90 281.51,141.15 284.26,139.78
             287.67,138.08 291.65,137.76 295.28,136.72
             302.88,134.54 303.77,137.55 305.00,134.00 Z
           M 322.00,134.00
           C 322.00,134.00 328.00,135.00 328.00,135.00
             328.00,135.00 322.00,134.00 322.00,134.00 Z
           M 260.00,136.00
           C 260.00,136.00 259.00,136.00 259.00,136.00
             259.00,136.00 260.00,137.00 260.00,137.00
             260.00,137.00 260.00,136.00 260.00,136.00 Z
           M 259.00,137.00
           C 259.00,137.00 258.00,137.00 258.00,137.00
             258.00,137.00 259.00,138.00 259.00,138.00
             259.00,138.00 259.00,137.00 259.00,137.00 Z
           M 297.00,137.00
           C 297.00,137.00 296.00,137.00 296.00,137.00
             296.00,137.00 297.00,138.00 297.00,138.00
             297.00,138.00 297.00,137.00 297.00,137.00 Z
           M 279.00,141.00
           C 279.00,141.00 280.00,141.00 280.00,141.00
             280.00,141.00 279.00,142.00 279.00,142.00
             279.00,142.00 279.00,141.00 279.00,141.00 Z
           M 273.00,143.00
           C 273.00,143.00 274.00,143.00 274.00,143.00
             274.00,143.00 273.00,144.00 273.00,144.00
             273.00,144.00 273.00,143.00 273.00,143.00 Z
           M 249.00,145.00
           C 249.00,145.00 248.00,145.00 248.00,145.00
             248.00,145.00 249.00,146.00 249.00,146.00
             249.00,146.00 249.00,145.00 249.00,145.00 Z
           M 252.00,145.00
           C 252.00,145.00 251.00,145.00 251.00,145.00
             251.00,145.00 252.00,146.00 252.00,146.00
             252.00,146.00 252.00,145.00 252.00,145.00 Z
           M 272.00,145.00
           C 272.00,145.00 271.00,145.00 271.00,145.00
             271.00,145.00 272.00,146.00 272.00,146.00
             272.00,146.00 272.00,145.00 272.00,145.00 Z
           M 248.00,146.00
           C 248.00,146.00 247.00,146.00 247.00,146.00
             247.00,146.00 248.00,147.00 248.00,147.00
             248.00,147.00 248.00,146.00 248.00,146.00 Z
           M 264.00,148.00
           C 264.00,148.00 263.00,148.00 263.00,148.00
             263.00,148.00 264.00,149.00 264.00,149.00
             264.00,149.00 264.00,148.00 264.00,148.00 Z
           M 249.00,155.00
           C 252.28,153.95 252.86,153.42 256.00,155.00
             256.00,155.00 251.00,156.00 251.00,156.00
             251.00,156.00 254.00,157.00 254.00,157.00
             254.00,157.00 249.00,159.00 249.00,159.00
             249.00,159.00 251.00,157.00 251.00,157.00
             251.00,157.00 249.00,155.00 249.00,155.00 Z
           M 243.00,169.00
           C 246.91,162.73 256.26,161.82 263.00,160.13
             277.96,156.37 293.61,153.88 309.00,154.91
             315.36,155.34 322.17,155.03 328.00,158.00
             328.00,158.00 311.00,157.04 311.00,157.04
             290.16,157.85 263.09,163.18 243.00,169.00 Z
           M 247.00,156.00
           C 248.23,159.80 246.41,159.67 244.00,162.00
             244.00,162.00 242.00,160.00 242.00,160.00
             242.00,160.00 241.00,163.00 241.00,163.00
             241.00,163.00 245.00,157.00 245.00,157.00
             245.00,157.00 247.00,156.00 247.00,156.00 Z
           M 413.00,169.00
           C 413.00,169.00 412.00,169.00 412.00,169.00
             412.00,169.00 413.00,170.00 413.00,170.00
             413.00,170.00 413.00,169.00 413.00,169.00 Z
           M 186.00,172.00
           C 186.00,172.00 185.00,172.00 185.00,172.00
             185.00,172.00 186.00,173.00 186.00,173.00
             186.00,173.00 186.00,172.00 186.00,172.00 Z
           M 417.00,172.00
           C 417.00,172.00 416.00,172.00 416.00,172.00
             416.00,172.00 417.00,173.00 417.00,173.00
             417.00,173.00 417.00,172.00 417.00,172.00 Z
           M 379.00,177.00
           C 379.00,177.00 378.00,177.00 378.00,177.00
             378.00,177.00 379.00,178.00 379.00,178.00
             379.00,178.00 379.00,177.00 379.00,177.00 Z
           M 374.00,184.00
           C 374.00,184.00 373.00,184.00 373.00,184.00
             373.00,184.00 374.00,185.00 374.00,185.00
             374.00,185.00 374.00,184.00 374.00,184.00 Z
           M 196.00,185.00
           C 196.00,185.00 195.00,185.00 195.00,185.00
             195.00,185.00 196.00,186.00 196.00,186.00
             196.00,186.00 196.00,185.00 196.00,185.00 Z
           M 400.00,193.00
           C 400.00,193.00 399.00,193.00 399.00,193.00
             399.00,193.00 400.00,194.00 400.00,194.00
             400.00,194.00 400.00,193.00 400.00,193.00 Z
           M 208.00,195.00
           C 208.00,195.00 207.00,195.00 207.00,195.00
             207.00,195.00 208.00,196.00 208.00,196.00
             208.00,196.00 208.00,195.00 208.00,195.00 Z
           M 205.00,196.00
           C 205.00,196.00 204.00,196.00 204.00,196.00
             204.00,196.00 205.00,197.00 205.00,197.00
             205.00,197.00 205.00,196.00 205.00,196.00 Z
           M 209.00,196.00
           C 209.00,196.00 208.00,196.00 208.00,196.00
             208.00,196.00 209.00,197.00 209.00,197.00
             209.00,197.00 209.00,196.00 209.00,196.00 Z
           M 296.00,201.00
           C 296.00,201.00 295.00,201.00 295.00,201.00
             295.00,201.00 296.00,202.00 296.00,202.00
             296.00,202.00 296.00,201.00 296.00,201.00 Z
           M 223.00,202.00
           C 223.00,202.00 222.00,202.00 222.00,202.00
             222.00,202.00 223.00,203.00 223.00,203.00
             223.00,203.00 223.00,202.00 223.00,202.00 Z
           M 221.00,203.00
           C 221.00,203.00 220.00,203.00 220.00,203.00
             220.00,203.00 221.00,204.00 221.00,204.00
             221.00,204.00 221.00,203.00 221.00,203.00 Z
           M 441.00,203.00
           C 441.00,203.00 440.00,203.00 440.00,203.00
             440.00,203.00 441.00,204.00 441.00,204.00
             441.00,204.00 441.00,203.00 441.00,203.00 Z
           M 240.00,208.00
           C 240.00,208.00 239.00,208.00 239.00,208.00
             239.00,208.00 240.00,209.00 240.00,209.00
             240.00,209.00 240.00,208.00 240.00,208.00 Z
           M 397.00,213.00
           C 397.00,213.00 396.00,213.00 396.00,213.00
             396.00,213.00 397.00,214.00 397.00,214.00
             397.00,214.00 397.00,213.00 397.00,213.00 Z
           M 427.00,220.00
           C 427.00,220.00 426.00,220.00 426.00,220.00
             426.00,220.00 427.00,221.00 427.00,221.00
             427.00,221.00 427.00,220.00 427.00,220.00 Z
           M 305.00,221.00
           C 305.00,221.00 304.00,221.00 304.00,221.00
             304.00,221.00 305.00,222.00 305.00,222.00
             305.00,222.00 305.00,221.00 305.00,221.00 Z
           M 457.00,230.00
           C 457.00,230.00 456.00,230.00 456.00,230.00
             456.00,230.00 457.00,231.00 457.00,231.00
             457.00,231.00 457.00,230.00 457.00,230.00 Z
           M 382.00,231.00
           C 382.00,231.00 381.00,231.00 381.00,231.00
             381.00,231.00 382.00,232.00 382.00,232.00
             382.00,232.00 382.00,231.00 382.00,231.00 Z
           M 382.00,234.00
           C 382.00,234.00 381.00,234.00 381.00,234.00
             381.00,234.00 382.00,235.00 382.00,235.00
             382.00,235.00 382.00,234.00 382.00,234.00 Z
           M 55.00,247.00
           C 55.00,247.00 54.00,247.00 54.00,247.00
             54.00,247.00 55.00,248.00 55.00,248.00
             55.00,248.00 55.00,247.00 55.00,247.00 Z
           M 47.00,250.00
           C 47.00,250.00 46.00,250.00 46.00,250.00
             46.00,250.00 47.00,251.00 47.00,251.00
             47.00,251.00 47.00,250.00 47.00,250.00 Z
           M 116.00,254.00
           C 116.00,254.00 115.00,254.00 115.00,254.00
             115.00,254.00 116.00,255.00 116.00,255.00
             116.00,255.00 116.00,254.00 116.00,254.00 Z
           M 25.00,270.00
           C 25.00,270.00 24.00,270.00 24.00,270.00
             24.00,270.00 25.00,271.00 25.00,271.00
             25.00,271.00 25.00,270.00 25.00,270.00 Z
           M 122.00,272.00
           C 122.00,272.00 121.00,272.00 121.00,272.00
             121.00,272.00 122.00,273.00 122.00,273.00
             122.00,273.00 122.00,272.00 122.00,272.00 Z
           M 89.00,283.00
           C 89.00,283.00 88.00,283.00 88.00,283.00
             88.00,283.00 89.00,284.00 89.00,284.00
             89.00,284.00 89.00,283.00 89.00,283.00 Z
           M 224.00,283.00
           C 224.00,283.00 223.00,283.00 223.00,283.00
             223.00,283.00 224.00,284.00 224.00,284.00
             224.00,284.00 224.00,283.00 224.00,283.00 Z
           M 62.00,285.00
           C 62.00,285.00 61.00,285.00 61.00,285.00
             61.00,285.00 62.00,286.00 62.00,286.00
             62.00,286.00 62.00,285.00 62.00,285.00 Z
           M 272.00,292.00
           C 272.00,292.00 271.00,292.00 271.00,292.00
             271.00,292.00 272.00,293.00 272.00,293.00
             272.00,293.00 272.00,292.00 272.00,292.00 Z
           M 293.00,313.00
           C 293.00,313.00 292.00,313.00 292.00,313.00
             292.00,313.00 293.00,314.00 293.00,314.00
             293.00,314.00 293.00,313.00 293.00,313.00 Z
           M 238.00,318.00
           C 238.00,318.00 237.00,318.00 237.00,318.00
             237.00,318.00 238.00,319.00 238.00,319.00
             238.00,319.00 238.00,318.00 238.00,318.00 Z
           M 239.00,320.00
           C 239.00,320.00 238.00,320.00 238.00,320.00
             238.00,320.00 239.00,321.00 239.00,321.00
             239.00,321.00 239.00,320.00 239.00,320.00 Z
           M 115.00,321.00
           C 115.00,321.00 114.00,321.00 114.00,321.00
             114.00,321.00 115.00,322.00 115.00,322.00
             115.00,322.00 115.00,321.00 115.00,321.00 Z
           M 239.00,322.00
           C 231.50,322.35 224.30,324.96 217.00,326.58
             204.12,329.42 184.98,332.98 172.00,332.79
             172.00,332.79 156.00,332.79 156.00,332.79
             151.28,331.95 144.36,330.29 140.00,332.00
             150.88,334.93 157.06,337.94 169.00,338.00
             190.44,338.10 192.75,338.30 214.00,333.66
             217.37,332.93 233.28,329.13 235.32,327.72
             237.58,326.14 238.15,324.44 239.00,322.00 Z
           M 298.00,323.00
           C 298.00,323.00 297.00,323.00 297.00,323.00
             297.00,323.00 298.00,324.00 298.00,324.00
             298.00,324.00 298.00,323.00 298.00,323.00 Z
           M 243.00,327.00
           C 243.00,327.00 242.00,327.00 242.00,327.00
             242.00,327.00 243.00,328.00 243.00,328.00
             243.00,328.00 243.00,327.00 243.00,327.00 Z
           M 241.00,328.00
           C 241.00,328.00 220.00,336.74 220.00,336.74
             220.00,336.74 190.00,348.97 190.00,348.97
             190.00,348.97 165.00,354.83 165.00,354.83
             165.00,354.83 145.00,357.00 145.00,357.00
             169.56,363.19 197.68,354.76 220.00,344.22
             224.61,342.04 237.55,335.67 239.98,331.68
             240.82,330.30 240.75,329.46 241.00,328.00 Z
           M 103.00,329.00
           C 103.00,329.00 102.00,329.00 102.00,329.00
             102.00,329.00 103.00,330.00 103.00,330.00
             103.00,330.00 103.00,329.00 103.00,329.00 Z
           M 77.00,330.00
           C 77.00,330.00 76.00,330.00 76.00,330.00
             76.00,330.00 77.00,331.00 77.00,331.00
             77.00,331.00 77.00,330.00 77.00,330.00 Z
           M 246.00,333.00
           C 246.00,333.00 242.00,332.00 242.00,332.00
             238.46,336.18 234.13,338.44 230.00,342.05
             216.18,354.14 201.29,364.99 185.00,373.52
             180.89,375.66 171.54,379.23 167.00,380.65
             163.08,381.88 159.57,381.69 157.00,385.00
             183.97,383.76 205.77,371.10 226.28,354.26
             233.53,348.30 242.05,341.78 246.00,333.00 Z
           M 238.00,335.00
           C 238.00,335.00 237.00,335.00 237.00,335.00
             237.00,335.00 238.00,336.00 238.00,336.00
             238.00,336.00 238.00,335.00 238.00,335.00 Z
           M 236.00,336.00
           C 236.00,336.00 235.00,336.00 235.00,336.00
             235.00,336.00 236.00,337.00 236.00,337.00
             236.00,337.00 236.00,336.00 236.00,336.00 Z
           M 212.00,338.00
           C 212.00,338.00 211.00,338.00 211.00,338.00
             211.00,338.00 212.00,339.00 212.00,339.00
             212.00,339.00 212.00,338.00 212.00,338.00 Z
           M 244.00,338.00
           C 244.00,338.00 243.00,338.00 243.00,338.00
             243.00,338.00 244.00,339.00 244.00,339.00
             244.00,339.00 244.00,338.00 244.00,338.00 Z
           M 243.00,340.00
           C 243.00,340.00 242.00,340.00 242.00,340.00
             242.00,340.00 243.00,341.00 243.00,341.00
             243.00,341.00 243.00,340.00 243.00,340.00 Z
           M 463.00,341.00
           C 463.00,341.00 462.00,341.00 462.00,341.00
             462.00,341.00 463.00,342.00 463.00,342.00
             463.00,342.00 463.00,341.00 463.00,341.00 Z
           M 225.00,345.00
           C 225.00,345.00 224.00,345.00 224.00,345.00
             224.00,345.00 225.00,346.00 225.00,346.00
             225.00,346.00 225.00,345.00 225.00,345.00 Z
           M 235.00,348.00
           C 235.00,348.00 234.00,348.00 234.00,348.00
             234.00,348.00 235.00,349.00 235.00,349.00
             235.00,349.00 235.00,348.00 235.00,348.00 Z
           M 238.00,348.00
           C 238.00,348.00 237.00,348.00 237.00,348.00
             237.00,348.00 238.00,349.00 238.00,349.00
             238.00,349.00 238.00,348.00 238.00,348.00 Z
           M 218.00,351.00
           C 218.00,351.00 217.00,351.00 217.00,351.00
             217.00,351.00 218.00,352.00 218.00,352.00
             218.00,352.00 218.00,351.00 218.00,351.00 Z
           M 231.00,351.00
           C 231.00,351.00 230.00,351.00 230.00,351.00
             230.00,351.00 231.00,352.00 231.00,352.00
             231.00,352.00 231.00,351.00 231.00,351.00 Z
           M 216.00,352.00
           C 216.00,352.00 215.00,352.00 215.00,352.00
             215.00,352.00 216.00,353.00 216.00,353.00
             216.00,353.00 216.00,352.00 216.00,352.00 Z
           M 30.00,353.00
           C 30.00,353.00 29.00,353.00 29.00,353.00
             29.00,353.00 30.00,354.00 30.00,354.00
             30.00,354.00 30.00,353.00 30.00,353.00 Z
           M 229.00,353.00
           C 229.00,353.00 228.00,353.00 228.00,353.00
             228.00,353.00 229.00,354.00 229.00,354.00
             229.00,354.00 229.00,353.00 229.00,353.00 Z
           M 200.00,354.00
           C 200.00,354.00 199.00,354.00 199.00,354.00
             199.00,354.00 200.00,355.00 200.00,355.00
             200.00,355.00 200.00,354.00 200.00,354.00 Z
           M 233.00,372.00
           C 241.41,374.73 252.58,375.47 259.97,369.58
             264.38,366.06 269.76,355.22 259.97,354.61
             256.22,354.38 252.72,358.00 249.91,360.14
             244.70,364.10 238.87,367.14 233.00,370.00
             233.00,370.00 233.00,372.00 233.00,372.00 Z
           M 228.00,355.00
           C 228.00,355.00 227.00,355.00 227.00,355.00
             227.00,355.00 228.00,356.00 228.00,356.00
             228.00,356.00 228.00,355.00 228.00,355.00 Z
           M 454.00,355.00
           C 454.00,355.00 453.00,355.00 453.00,355.00
             453.00,355.00 454.00,356.00 454.00,356.00
             454.00,356.00 454.00,355.00 454.00,355.00 Z
           M 65.00,358.00
           C 65.00,358.00 64.00,358.00 64.00,358.00
             64.00,358.00 65.00,359.00 65.00,359.00
             65.00,359.00 65.00,358.00 65.00,358.00 Z
           M 247.00,359.00
           C 247.00,359.00 246.00,359.00 246.00,359.00
             246.00,359.00 247.00,360.00 247.00,360.00
             247.00,360.00 247.00,359.00 247.00,359.00 Z
           M 206.00,360.00
           C 206.00,360.00 205.00,360.00 205.00,360.00
             205.00,360.00 206.00,361.00 206.00,361.00
             206.00,361.00 206.00,360.00 206.00,360.00 Z
           M 65.00,361.00
           C 65.00,361.00 64.00,361.00 64.00,361.00
             64.00,361.00 65.00,362.00 65.00,362.00
             65.00,362.00 65.00,361.00 65.00,361.00 Z
           M 35.00,362.00
           C 35.00,362.00 34.00,362.00 34.00,362.00
             34.00,362.00 35.00,363.00 35.00,363.00
             35.00,363.00 35.00,362.00 35.00,362.00 Z
           M 201.00,362.00
           C 201.00,362.00 200.00,362.00 200.00,362.00
             200.00,362.00 201.00,363.00 201.00,363.00
             201.00,363.00 201.00,362.00 201.00,362.00 Z
           M 240.00,363.00
           C 240.00,363.00 239.00,363.00 239.00,363.00
             239.00,363.00 240.00,364.00 240.00,364.00
             240.00,364.00 240.00,363.00 240.00,363.00 Z
           M 68.00,365.00
           C 68.00,365.00 67.00,365.00 67.00,365.00
             67.00,365.00 68.00,366.00 68.00,366.00
             68.00,366.00 68.00,365.00 68.00,365.00 Z
           M 448.00,365.00
           C 448.00,365.00 447.00,365.00 447.00,365.00
             447.00,365.00 448.00,366.00 448.00,366.00
             448.00,366.00 448.00,365.00 448.00,365.00 Z
           M 444.00,373.00
           C 444.00,373.00 443.00,373.00 443.00,373.00
             443.00,373.00 444.00,374.00 444.00,374.00
             444.00,374.00 444.00,373.00 444.00,373.00 Z
           M 176.00,376.00
           C 176.00,376.00 175.00,376.00 175.00,376.00
             175.00,376.00 176.00,377.00 176.00,377.00
             176.00,377.00 176.00,376.00 176.00,376.00 Z
           M 192.00,378.00
           C 192.00,378.00 191.00,378.00 191.00,378.00
             191.00,378.00 192.00,379.00 192.00,379.00
             192.00,379.00 192.00,378.00 192.00,378.00 Z
           M 83.00,383.00
           C 83.00,383.00 82.00,383.00 82.00,383.00
             82.00,383.00 83.00,384.00 83.00,384.00
             83.00,384.00 83.00,383.00 83.00,383.00 Z
           M 439.00,383.00
           C 439.00,383.00 438.00,383.00 438.00,383.00
             438.00,383.00 439.00,384.00 439.00,384.00
             439.00,384.00 439.00,383.00 439.00,383.00 Z
           M 51.00,385.00
           C 51.00,385.00 50.00,385.00 50.00,385.00
             50.00,385.00 51.00,386.00 51.00,386.00
             51.00,386.00 51.00,385.00 51.00,385.00 Z
           M 435.00,388.00
           C 435.00,388.00 434.00,388.00 434.00,388.00
             434.00,388.00 435.00,389.00 435.00,389.00
             435.00,389.00 435.00,388.00 435.00,388.00 Z
           M 434.00,389.00
           C 434.00,389.00 433.00,389.00 433.00,389.00
             433.00,389.00 434.00,390.00 434.00,390.00
             434.00,390.00 434.00,389.00 434.00,389.00 Z
           M 52.00,390.00
           C 52.00,390.00 51.00,390.00 51.00,390.00
             51.00,390.00 52.00,391.00 52.00,391.00
             52.00,391.00 52.00,390.00 52.00,390.00 Z
           M 92.00,391.00
           C 92.00,391.00 91.00,391.00 91.00,391.00
             91.00,391.00 92.00,392.00 92.00,392.00
             92.00,392.00 92.00,391.00 92.00,391.00 Z
           M 425.00,395.00
           C 425.00,395.00 424.00,395.00 424.00,395.00
             424.00,395.00 425.00,396.00 425.00,396.00
             425.00,396.00 425.00,395.00 425.00,395.00 Z
           M 57.00,396.00
           C 57.00,396.00 56.00,396.00 56.00,396.00
             56.00,396.00 57.00,397.00 57.00,397.00
             57.00,397.00 57.00,396.00 57.00,396.00 Z
           M 270.00,399.00
           C 270.00,399.00 269.00,399.00 269.00,399.00
             269.00,399.00 270.00,400.00 270.00,400.00
             270.00,400.00 270.00,399.00 270.00,399.00 Z
           M 423.00,402.00
           C 423.00,402.00 422.00,402.00 422.00,402.00
             422.00,402.00 423.00,403.00 423.00,403.00
             423.00,403.00 423.00,402.00 423.00,402.00 Z
           M 102.00,404.00
           C 102.00,404.00 101.00,404.00 101.00,404.00
             101.00,404.00 102.00,405.00 102.00,405.00
             102.00,405.00 102.00,404.00 102.00,404.00 Z
           M 65.00,406.00
           C 65.00,406.00 64.00,406.00 64.00,406.00
             64.00,406.00 65.00,407.00 65.00,407.00
             65.00,407.00 65.00,406.00 65.00,406.00 Z
           M 70.00,407.00
           C 70.00,407.00 69.00,407.00 69.00,407.00
             69.00,407.00 70.00,408.00 70.00,408.00
             70.00,408.00 70.00,407.00 70.00,407.00 Z
           M 109.00,409.00
           C 109.00,409.00 108.00,409.00 108.00,409.00
             108.00,409.00 109.00,410.00 109.00,410.00
             109.00,410.00 109.00,409.00 109.00,409.00 Z
           M 412.00,409.00
           C 412.00,409.00 411.00,409.00 411.00,409.00
             411.00,409.00 412.00,410.00 412.00,410.00
             412.00,410.00 412.00,409.00 412.00,409.00 Z
           M 417.00,409.00
           C 417.00,409.00 416.00,409.00 416.00,409.00
             416.00,409.00 417.00,410.00 417.00,410.00
             417.00,410.00 417.00,409.00 417.00,409.00 Z
           M 409.00,412.00
           C 409.00,412.00 408.00,412.00 408.00,412.00
             408.00,412.00 409.00,413.00 409.00,413.00
             409.00,413.00 409.00,412.00 409.00,412.00 Z
           M 73.00,413.00
           C 73.00,413.00 72.00,413.00 72.00,413.00
             72.00,413.00 73.00,414.00 73.00,414.00
             73.00,414.00 73.00,413.00 73.00,413.00 Z
           M 408.00,413.00
           C 408.00,413.00 407.00,413.00 407.00,413.00
             407.00,413.00 408.00,414.00 408.00,414.00
             408.00,414.00 408.00,413.00 408.00,413.00 Z
           M 409.00,414.00
           C 409.00,414.00 408.00,414.00 408.00,414.00
             408.00,414.00 409.00,415.00 409.00,415.00
             409.00,415.00 409.00,414.00 409.00,414.00 Z
           M 412.00,414.00
           C 412.00,414.00 411.00,414.00 411.00,414.00
             411.00,414.00 412.00,415.00 412.00,415.00
             412.00,415.00 412.00,414.00 412.00,414.00 Z
           M 76.00,415.00
           C 76.00,415.00 75.00,415.00 75.00,415.00
             75.00,415.00 76.00,416.00 76.00,416.00
             76.00,416.00 76.00,415.00 76.00,415.00 Z
           M 75.00,416.00
           C 75.00,416.00 74.00,416.00 74.00,416.00
             74.00,416.00 75.00,417.00 75.00,417.00
             75.00,417.00 75.00,416.00 75.00,416.00 Z
           M 82.00,419.00
           C 82.00,419.00 81.00,419.00 81.00,419.00
             81.00,419.00 82.00,420.00 82.00,420.00
             82.00,420.00 82.00,419.00 82.00,419.00 Z
           M 406.00,420.00
           C 406.00,420.00 405.00,420.00 405.00,420.00
             405.00,420.00 406.00,421.00 406.00,421.00
             406.00,421.00 406.00,420.00 406.00,420.00 Z
           M 84.00,421.00
           C 84.00,421.00 83.00,421.00 83.00,421.00
             83.00,421.00 84.00,422.00 84.00,422.00
             84.00,422.00 84.00,421.00 84.00,421.00 Z
           M 405.00,421.00
           C 405.00,421.00 404.00,421.00 404.00,421.00
             404.00,421.00 405.00,422.00 405.00,422.00
             405.00,422.00 405.00,421.00 405.00,421.00 Z
           M 398.00,422.00
           C 398.00,422.00 397.00,422.00 397.00,422.00
             397.00,422.00 398.00,423.00 398.00,423.00
             398.00,423.00 398.00,422.00 398.00,422.00 Z
           M 401.00,424.00
           C 401.00,424.00 400.00,424.00 400.00,424.00
             400.00,424.00 401.00,425.00 401.00,425.00
             401.00,425.00 401.00,424.00 401.00,424.00 Z
           M 89.00,425.00
           C 89.00,425.00 88.00,425.00 88.00,425.00
             88.00,425.00 89.00,426.00 89.00,426.00
             89.00,426.00 89.00,425.00 89.00,425.00 Z
           M 132.00,426.00
           C 132.00,426.00 131.00,426.00 131.00,426.00
             131.00,426.00 132.00,427.00 132.00,427.00
             132.00,427.00 132.00,426.00 132.00,426.00 Z
           M 135.00,426.00
           C 135.00,426.00 134.00,426.00 134.00,426.00
             134.00,426.00 135.00,427.00 135.00,427.00
             135.00,427.00 135.00,426.00 135.00,426.00 Z
           M 91.00,427.00
           C 91.00,427.00 90.00,427.00 90.00,427.00
             90.00,427.00 91.00,428.00 91.00,428.00
             91.00,428.00 91.00,427.00 91.00,427.00 Z
           M 393.00,428.00
           C 393.00,428.00 392.00,428.00 392.00,428.00
             392.00,428.00 393.00,429.00 393.00,429.00
             393.00,429.00 393.00,428.00 393.00,428.00 Z
           M 396.00,428.00
           C 396.00,428.00 395.00,428.00 395.00,428.00
             395.00,428.00 396.00,429.00 396.00,429.00
             396.00,429.00 396.00,428.00 396.00,428.00 Z
           M 94.00,429.00
           C 94.00,429.00 93.00,429.00 93.00,429.00
             93.00,429.00 94.00,430.00 94.00,430.00
             94.00,430.00 94.00,429.00 94.00,429.00 Z
           M 96.00,431.00
           C 96.00,431.00 95.00,431.00 95.00,431.00
             95.00,431.00 96.00,432.00 96.00,432.00
             96.00,432.00 96.00,431.00 96.00,431.00 Z
           M 226.00,431.00
           C 226.00,431.00 225.00,431.00 225.00,431.00
             225.00,431.00 226.00,432.00 226.00,432.00
             226.00,432.00 226.00,431.00 226.00,431.00 Z
           M 393.00,431.00
           C 393.00,431.00 392.00,431.00 392.00,431.00
             392.00,431.00 393.00,432.00 393.00,432.00
             393.00,432.00 393.00,431.00 393.00,431.00 Z
           M 390.00,433.00
           C 390.00,433.00 389.00,433.00 389.00,433.00
             389.00,433.00 390.00,434.00 390.00,434.00
             390.00,434.00 390.00,433.00 390.00,433.00 Z
           M 227.00,434.00
           C 227.00,434.00 221.00,437.00 221.00,437.00
             221.00,437.00 219.00,443.00 219.00,443.00
             216.14,441.81 213.17,440.63 210.02,441.44
             202.19,443.46 205.42,450.88 210.02,454.61
             217.92,461.01 227.96,459.80 237.00,462.00
             237.00,462.00 235.00,451.00 235.00,451.00
             235.00,451.00 227.00,434.00 227.00,434.00 Z
           M 281.00,437.00
           C 281.00,437.00 280.00,437.00 280.00,437.00
             280.00,437.00 281.00,438.00 281.00,438.00
             281.00,438.00 281.00,437.00 281.00,437.00 Z
           M 160.00,439.00
           C 160.00,439.00 159.00,439.00 159.00,439.00
             159.00,439.00 160.00,440.00 160.00,440.00
             160.00,440.00 160.00,439.00 160.00,439.00 Z
           M 381.00,439.00
           C 381.00,439.00 380.00,439.00 380.00,439.00
             380.00,439.00 381.00,440.00 381.00,440.00
             381.00,440.00 381.00,439.00 381.00,439.00 Z
           M 208.00,440.00
           C 208.00,440.00 207.00,440.00 207.00,440.00
             207.00,440.00 208.00,441.00 208.00,441.00
             208.00,441.00 208.00,440.00 208.00,440.00 Z
           M 176.00,447.00
           C 176.00,447.00 175.00,447.00 175.00,447.00
             175.00,447.00 176.00,448.00 176.00,448.00
             176.00,448.00 176.00,447.00 176.00,447.00 Z
           M 178.00,448.00
           C 178.00,448.00 177.00,448.00 177.00,448.00
             177.00,448.00 178.00,449.00 178.00,449.00
             178.00,449.00 178.00,448.00 178.00,448.00 Z
           M 120.00,450.00
           C 120.00,450.00 119.00,450.00 119.00,450.00
             119.00,450.00 120.00,451.00 120.00,451.00
             120.00,451.00 120.00,450.00 120.00,450.00 Z
           M 236.00,453.00
           C 236.00,453.00 235.00,453.00 235.00,453.00
             235.00,453.00 236.00,454.00 236.00,454.00
             236.00,454.00 236.00,453.00 236.00,453.00 Z
           M 131.00,455.00
           C 131.00,455.00 130.00,455.00 130.00,455.00
             130.00,455.00 131.00,456.00 131.00,456.00
             131.00,456.00 131.00,455.00 131.00,455.00 Z
           M 141.00,459.00
           C 141.00,459.00 140.00,459.00 140.00,459.00
             140.00,459.00 141.00,460.00 141.00,460.00
             141.00,460.00 141.00,459.00 141.00,459.00 Z
           M 243.00,461.00
           C 243.00,461.00 242.00,461.00 242.00,461.00
             242.00,461.00 243.00,462.00 243.00,462.00
             243.00,462.00 243.00,461.00 243.00,461.00 Z
           M 332.00,463.00
           C 332.00,463.00 331.00,463.00 331.00,463.00
             331.00,463.00 332.00,464.00 332.00,464.00
             332.00,464.00 332.00,463.00 332.00,463.00 Z
           M 336.00,465.00
           C 336.00,465.00 335.00,465.00 335.00,465.00
             335.00,465.00 336.00,466.00 336.00,466.00
             336.00,466.00 336.00,465.00 336.00,465.00 Z" />
</svg>
